<svg viewBox="0 0 200 200" fill="none" xmlns="http://www.w3.org/2000/svg" data-title="paymentSafe">
  <path d="M136.483 150.472C137.773 161.864 137.035 170.047 137.035 170.047L139.619 174.156M65.2023 150.521C63.6974 161.316 64.1576 171.979 64.1576 171.979L61.0898 173.587" stroke="#575551" stroke-linecap="round" stroke-linejoin="round"/>
  <path d="M161.25 82.5487C161.25 82.5487 171.25 84.0487 173.25 99.5487M41.25 86.0487C31.5881 83.5723 26.75 93.8646 26.75 102.549" stroke="#575551" stroke-linecap="round"/>
  <rect x="31.5454" y="29.299" width="132" height="132" rx="8" transform="rotate(-1.5 31.5454 29.299)" fill="#D9DEE3"/>
  <path d="M147.161 39.7761C148.864 39.7291 150.289 41.0786 150.333 42.779L150.333 42.782L153.023 141.463L153.023 141.464C153.07 143.169 151.723 144.592 150.024 144.635L150.022 144.636L51.3371 147.325C49.6855 147.367 48.3004 146.105 48.1726 144.478L48.1646 144.319L45.4781 45.643L45.478 45.64C45.4283 43.932 46.7743 42.5137 48.4799 42.4666L48.4789 42.4657L147.161 39.7761Z" fill="#D9DEE3" stroke="#7D8995"/>
  <line x1="45.9571" y1="63.9336" x2="46.2189" y2="73.9302" stroke="#E4EAF0" stroke-linecap="round"/>
  <line x1="47.3182" y1="115.916" x2="47.58" y2="125.912" stroke="#E4EAF0" stroke-linecap="round"/>
  <path d="M71.9751 64.239C71.9408 64.56 71.9526 65.0078 72.2841 65.4472 73.9393 67.5377 76.4867 68.6659 78.976 68.3873 81.5293 68.1071 83.8341 66.489 84.9466 64.1554 85.1695 63.7014 85.1763 63.1465 84.9929 62.6605 84.8313 62.1953 84.502 61.8411 84.0918 61.6598 83.1205 61.2372 82.0211 61.6287 81.5962 62.5147 81.5351 62.623 81.4952 62.7307 81.434 62.839 81.4346 62.8603 81.393 62.9041 81.3728 62.9473L81.3319 63.0124C81.3319 63.0124 81.2909 63.0775 81.2701 63.0994 81.2292 63.1645 81.1669 63.2301 81.1051 63.3171 81.0434 63.404 80.9811 63.4697 80.8975 63.5359L80.8352 63.6015C80.8352 63.6015 80.7521 63.6891 80.7313 63.711 80.6062 63.8209 80.5226 63.8871 80.4176 63.9539 80.2919 64.0425 80.187 64.1093 80.0607 64.1766L79.8082 64.3113C79.8082 64.3113 79.6814 64.3573 79.6185 64.4016 79.4917 64.4476 79.3862 64.493 79.2588 64.5177 79.1948 64.5194 79.1106 64.5642 79.0472 64.5872 79.0472 64.5872 78.9619 64.5895 78.9406 64.59 78.8766 64.5917 78.8127 64.5934 78.7493 64.6164 78.6 64.6203 78.4294 64.6248 78.2588 64.6292L78.1522 64.632C78.1522 64.632 78.0882 64.6337 78.0669 64.6343 78.0029 64.6359 77.9389 64.6376 77.8957 64.6174 77.6814 64.5803 77.467 64.5433 77.2521 64.4849 77.2521 64.4849 77.1882 64.4866 77.1876 64.4652L77.0153 64.4057C76.7999 64.326 76.6051 64.2244 76.4104 64.1228 76.3678 64.124 76.2803 64.0409 76.2152 63.9999 75.9975 63.8349 75.823 63.6901 75.6698 63.5448 75.626 63.5032 75.5823 63.4617 75.5385 63.4202L75.428 63.2737C75.0526 62.7927 74.4034 62.447 73.7637 62.4637 73.4439 62.4721 73.1262 62.5658 72.8333 62.7868 72.3939 63.1184 72.1087 63.638 72.0374 64.1733L71.9751 64.239ZM112.531 63.9238 112.315 63.8228C112.119 63.6998 111.924 63.5769 111.728 63.4327L111.663 63.3917 111.576 63.33 111.488 63.2256C111.488 63.2256 111.357 63.101 111.291 63.0387 111.182 62.9349 111.094 62.8305 111.005 62.7048 110.983 62.6627 110.939 62.6212 110.916 62.5578L110.826 62.3681C110.736 62.1997 110.646 62.0314 110.556 61.8417 110.396 61.4404 110.003 61.1093 109.53 60.951 109.293 60.8718 109.057 60.8353 108.822 60.8415 108.545 60.8487 108.291 60.9194 108.081 61.0316 107.177 61.5461 106.84 62.5578 107.251 63.5713 108.388 66.2515 111.424 68.1138 114.495 68.0334 114.537 68.0322 114.559 68.0317 114.601 68.0306 117.884 67.9019 120.99 65.9001 122.723 62.8247 123.192 61.9802 123.139 60.7867 122.207 60.2349 121.751 59.9481 121.13 59.8577 120.601 60.0209 120.304 60.0927 119.883 60.2958 119.617 60.7509 119.434 61.0757 119.27 61.3574 119.106 61.5964 119.024 61.7053 118.962 61.8136 118.88 61.9224 118.859 61.9443 118.756 62.0751 118.693 62.1407L118.466 62.4027C118.362 62.5121 118.237 62.6434 118.112 62.7534 117.904 62.9509 117.674 63.149 117.423 63.3262 117.423 63.3262 117.319 63.4143 117.297 63.4149 117.297 63.4149 117.297 63.4149 117.276 63.4155 117.213 63.4598 117.15 63.4828 117.087 63.5271 117.024 63.5714 116.94 63.6163 116.877 63.6606 116.688 63.7723 116.477 63.8631 116.286 63.9321L116.013 64.0673C116.013 64.0673 115.971 64.0898 115.928 64.0909 115.78 64.1375 115.631 64.1627 115.483 64.2092 115.313 64.2564 115.165 64.2816 114.995 64.3074 114.995 64.3074 114.909 64.3096 114.824 64.3119L114.59 64.318C114.398 64.323 114.248 64.3269 114.12 64.3303 113.971 64.3342 113.821 64.2954 113.671 64.278 113.65 64.2786 113.607 64.2797 113.586 64.2803L113.5 64.2825C113.5 64.2825 113.371 64.2219 113.306 64.2022 113.156 64.1635 112.984 64.104 112.833 64.0652 112.747 64.0248 112.661 64.0057 112.574 63.9653L112.531 63.9238ZM94.4165 72.9548C95.1432 72.9998 95.8698 73.0448 96.596 73.0685L97.6857 73.1253C98.1133 73.1568 98.6812 72.8432 98.9719 72.5368 99.3042 72.1867 99.5248 71.6475 99.4923 71.2216 99.4839 70.9017 99.3617 70.3074 98.9246 69.9134 98.5531 69.5818 98.1222 69.4223 97.5667 69.3942L95.3227 69.2609C95.3227 69.2609 95.1723 69.2222 95.1279 69.1593 95.0836 69.0965 95.0601 69.0117 95.0797 68.9472 95.1566 68.6251 95.2336 68.303 95.352 67.9372 95.5726 67.3979 95.8173 66.9648 96.0626 66.5529 96.062 66.5316 96.0828 66.5097 96.103 66.4665L96.1855 66.3576C96.4527 65.9666 96.6357 65.6203 96.6228 65.1299 96.61 64.6395 96.3828 64.1119 96.0557 63.8431 95.8155 63.636 95.3588 63.3066 94.783 63.3216 94.783 63.3216 94.7404 63.3228 94.7191 63.3233 94.1439 63.3597 93.6585 63.5645 93.411 63.891 92.6477 64.8926 92.0976 65.8886 91.7007 67.0299 91.5413 67.4608 91.4251 67.912 91.3521 68.3833 91.2398 68.9837 91.1482 69.5623 91.2048 70.0942 91.2934 71.0308 91.6103 71.7267 92.1776 72.2026 92.8105 72.7408 93.54 72.8924 94.4378 72.9543L94.4165 72.9548Z" fill="#575551"/>
  <path d="M132.838 70.1563C133.6 69.1335 133.204 67.8635 132.356 67.2456C131.747 66.7921 130.867 66.6231 130.166 67.5377C124.185 75.4615 114.61 80.5773 103.839 81.5849C93.6437 82.556 82.4609 80.0535 70.5709 74.1768C70.2679 74.014 69.9463 73.9584 69.6691 73.9656C68.9228 73.9852 68.3167 74.4705 67.9923 75.1192C67.6072 75.8974 67.6767 76.9198 68.7361 77.4469C81.6854 83.8507 93.7885 86.4572 104.703 85.2325C116.32 83.9254 126.567 78.4291 132.816 70.1356L132.838 70.1563Z" fill="#575551"/>
  <circle cx="99.8265" cy="115.541" r="17" transform="rotate(-1.5 99.8265 115.541)" fill="#7D8995" stroke="#E4EAF0"/>
  <circle cx="99.8265" cy="115.541" r="8" transform="rotate(-1.5 99.8265 115.541)" fill="#D9DEE3"/>
  <path d="M99.4861 102.546 99.3814 98.5469M100.271 132.535 100.167 128.537M112.822 115.201 116.821 115.096M82.8323 115.986 86.8309 115.881M108.775 106.111 111.528 103.21M88.1248 127.872 90.8782 124.971M109.256 124.49 112.158 127.243M87.4954 103.839 90.3969 106.593" stroke="#D9DEE3" stroke-linecap="round"/>
  <circle cx="99.8265" cy="115.541" r="17" transform="rotate(-1.5 99.8265 115.541)" stroke="#E4EAF0"/>
</svg>
