<svg xmlns="http://www.w3.org/2000/svg" width="240" height="240" fill="none"><g clip-path="url(#a)"><path fill="#575551" d="M42.02 172.839c-.73-.67-2.13-.87-2.83 0-2.63 3.27-3.59 7.43-2.75 11.41-.81.07-1.63.14-2.44.2-1.04.09-2.05.86-2 2 .05 1.01.88 2.09 2 2l5.08-.42c1.61-.13 2.37-1.57 1.73-3.01 0-.02-.01-.03-.02-.04-.04-.11-.09-.23-.13-.35-.08-.23-.16-.47-.22-.71-.07-.24-.12-.48-.17-.72-.01-.05-.06-.39-.08-.49-.1-.86-.09-1.73 0-2.58.02-.1.07-.44.08-.49.05-.24.11-.49.17-.73.11-.39.24-.77.38-1.14.04-.07.18-.42.21-.47.11-.22.23-.44.35-.66.13-.21.26-.42.4-.63l.21-.3c.01-.01.02-.02.03-.04.65-.81.85-2.04 0-2.83Zm25.21 11.999c-.62-.55-.98-1.04-1.26-1.73a6.52 6.52 0 0 1-.46-2.12c-.1-2.1.49-4.09 1.06-6.1.3-1.04-.36-2.18-1.4-2.46-1.05-.29-2.16.35-2.46 1.4-.7 2.44-1.42 5.03-1.18 7.59.13 1.35.47 2.67 1.07 3.87l-3.21 1.14c-1.02.36-1.7 1.36-1.4 2.46.27.98 1.44 1.76 2.46 1.4 1.96-.7 3.93-1.4 5.89-2.1 1.32-.47 2.09-2.27.88-3.34l.01-.01Z"/><mask id="b" fill="#fff"><path fill-rule="evenodd" d="M191.353 117.57a3.364 3.364 0 0 0-.179-.687c-4.002-10.69-10.362-20.302-18.576-25.749-2.654-1.76-4.597-4.571-4.597-7.757V54.918c0-1.932-1.568-3.5-3.5-3.5h-77a3.5 3.5 0 0 0-3.234 2.163 3.518 3.518 0 0 0 .756 3.815l10.644 10.638a8 8 0 0 1 2.344 5.633l.03 9.52c.01 3.235-1.984 6.085-4.703 7.84-8.376 5.407-14.762 15.021-18.716 25.86a3.404 3.404 0 0 0-.183.758C71.554 125.753 70 134.532 70 142.592c0 23.917 0 35.926 7.23 41.082 7.827 5.585 26.255 7.585 59.708 7.585 29.562 0 45.848-2 52.644-7.445C196 178.658 196 166.602 196 142.592c0-8.066-1.656-16.881-4.647-25.022Z" clip-rule="evenodd"/></mask><path fill="#E1EFFC" fill-rule="evenodd" d="M191.353 117.57a3.364 3.364 0 0 0-.179-.687c-4.002-10.69-10.362-20.302-18.576-25.749-2.654-1.76-4.597-4.571-4.597-7.757V54.918c0-1.932-1.568-3.5-3.5-3.5h-77a3.5 3.5 0 0 0-3.234 2.163 3.518 3.518 0 0 0 .756 3.815l10.644 10.638a8 8 0 0 1 2.344 5.633l.03 9.52c.01 3.235-1.984 6.085-4.703 7.84-8.376 5.407-14.762 15.021-18.716 25.86a3.404 3.404 0 0 0-.183.758C71.554 125.753 70 134.532 70 142.592c0 23.917 0 35.926 7.23 41.082 7.827 5.585 26.255 7.585 59.708 7.585 29.562 0 45.848-2 52.644-7.445C196 178.658 196 166.602 196 142.592c0-8.066-1.656-16.881-4.647-25.022Z" clip-rule="evenodd"/><path fill="#D2E8FA" d="m191.353 117.57-5.934.891c.061.402.162.797.302 1.178l5.632-2.069Zm-.179-.687-5.619 2.104 5.619-2.104Zm-18.576-25.749 3.316-5-3.316 5ZM85.023 57.396l-4.257 4.228.016.016 4.241-4.244Zm10.644 10.638 4.241-4.244-4.241 4.244Zm2.344 5.633 6.001-.018-6 .019Zm.03 9.52-6 .018 6-.019Zm-4.703 7.84-3.254-5.04 3.254 5.04Zm-18.716 25.86 5.636 2.057-5.636-2.057Zm-.183.758 5.653 2.011c.149-.418.25-.85.304-1.29l-5.957-.721Zm2.79 66.029 3.485-4.884-3.485 4.884Zm112.353.14 3.751 4.683.007-.005-3.758-4.678Zm7.704-67.135a9.295 9.295 0 0 0-.493-1.899l-11.238 4.207a2.663 2.663 0 0 1-.136-.526l11.867-1.782Zm-.493-1.899c-4.26-11.382-11.244-22.257-20.879-28.646l-6.632 10c6.793 4.505 12.53 12.854 16.273 22.853l11.238-4.207Zm-20.879-28.646c-1.47-.975-1.913-2.108-1.913-2.757h-12c0 5.723 3.442 10.212 7.281 12.758l6.632-10.001Zm-1.913-2.757V54.918h-12v28.46h12Zm0-28.459c0-5.246-4.254-9.5-9.5-9.5v12a2.5 2.5 0 0 1-2.5-2.5h12Zm-9.5-9.5h-77v12h77v-12Zm-77 0a9.5 9.5 0 0 0-8.782 5.879l11.096 4.569a2.5 2.5 0 0 1-2.314 1.552v-12Zm-8.782 5.879a9.518 9.518 0 0 0 2.047 10.327l8.515-8.456c.704.71.917 1.77.534 2.697L78.72 51.296Zm2.063 10.343 10.643 10.638 8.483-8.488-10.643-10.638-8.483 8.488Zm10.643 10.638a2 2 0 0 1 .587 1.408l12-.037a14.003 14.003 0 0 0-4.104-9.859l-8.483 8.488Zm.587 1.408.029 9.519 12-.037-.029-9.519-12 .037Zm.029 9.519c.002.656-.451 1.81-1.957 2.781l6.508 10.082c3.932-2.538 7.467-7.085 7.449-12.9l-12 .037Zm-1.957 2.781c-9.849 6.358-16.878 17.277-21.099 28.845l11.273 4.113c3.689-10.11 9.43-18.42 16.334-22.876l-6.508-10.082Zm-21.099 28.845a9.405 9.405 0 0 0-.502 2.092l11.913 1.443a2.596 2.596 0 0 1-.138.578l-11.273-4.113Zm-.199.802c-3.1 8.716-4.786 18.174-4.786 26.959h12c0-7.335 1.423-15.435 4.092-22.936l-11.306-4.023ZM64 142.592c0 11.776-.013 21.248.959 28.386.974 7.157 3.12 13.54 8.786 17.581l6.968-9.769c-1.563-1.116-3.031-3.316-3.864-9.431-.836-6.135-.849-14.626-.849-26.767H64Zm9.745 45.967c5.218 3.722 13.087 5.741 22.998 6.957 10.138 1.244 23.401 1.743 40.195 1.743v-12c-16.66 0-29.337-.501-38.734-1.654-9.622-1.18-14.88-2.953-17.49-4.815l-6.97 9.769Zm63.193 8.7c14.859 0 26.646-.499 35.674-1.736 8.802-1.206 15.977-3.225 20.721-7.026l-7.502-9.365c-2.053 1.644-6.418 3.347-14.848 4.502-8.205 1.124-19.342 1.625-34.045 1.625v12Zm56.402-8.767c5.13-4.122 6.97-10.49 7.815-17.501.856-7.105.845-16.556.845-28.399h-12c0 12.167-.011 20.749-.759 26.964-.76 6.308-2.129 8.546-3.417 9.581l7.516 9.355Zm8.66-45.9c0-8.837-1.804-18.351-5.015-27.091l-11.264 4.138c2.771 7.542 4.279 15.657 4.279 22.953h12Z" mask="url(#b)"/><mask id="c" width="140" height="54" x="62" y="149" maskUnits="userSpaceOnUse" style="mask-type:alpha"><path fill="#D9D9D9" d="M62 149.259h140v53H62z"/></mask><g mask="url(#c)"><path fill="#7A5C42" stroke="#E1EFFC" stroke-linecap="round" stroke-width="3" d="m185.931 183.293.002-.001c3.404-2.754 5.507-7.221 6.787-13.641 1.281-6.43 1.78-15.053 1.78-26.392 0-7.274-1.405-15.123-3.9-22.482l-.345-1.018H77.587l-.34 1.031c-2.42 7.353-3.747 15.19-3.747 22.469v.128c0 11.167 0 19.716.86 26.073.863 6.385 2.64 10.954 6.535 13.752 4.046 2.905 10.592 4.227 19.727 4.885 9.201.662 21.39.662 37 .662h.15c13.771 0 24.056 0 31.689-.647 7.603-.645 12.911-1.948 16.47-4.819Z"/></g><mask id="d" fill="#fff"><path fill-rule="evenodd" d="M191.353 117.569a3.364 3.364 0 0 0-.179-.687c-4.002-10.69-10.362-20.302-18.576-25.749-2.654-1.76-4.597-4.571-4.597-7.756v-28.46c0-1.932-1.568-3.5-3.5-3.5h-77a3.5 3.5 0 0 0-3.234 2.163 3.518 3.518 0 0 0 .756 3.815l10.644 10.638a8 8 0 0 1 2.344 5.633l.03 9.52c.01 3.235-1.984 6.085-4.703 7.84-8.376 5.407-14.762 15.021-18.716 25.861a3.383 3.383 0 0 0-.183.757C71.554 125.752 70 134.531 70 142.591c0 23.917 0 35.926 7.23 41.082 7.827 5.585 26.255 7.585 59.708 7.585 29.562 0 45.848-2 52.644-7.445C196 178.657 196 166.601 196 142.591c0-8.066-1.656-16.881-4.647-25.022Z" clip-rule="evenodd"/></mask><path fill="#E1EFFC" d="m191.353 117.569-5.934.891c.061.402.162.797.302 1.178l5.632-2.069Zm-.179-.687-5.619 2.104 5.619-2.104Zm-18.576-25.749 3.316-5-3.316 5ZM85.023 57.395l-4.257 4.228.016.016 4.241-4.244Zm10.644 10.638 4.241-4.244-4.241 4.244Zm2.344 5.633 6.001-.018-6 .019Zm.03 9.52-6 .018 6-.019Zm-4.703 7.84-3.254-5.04 3.254 5.04Zm-18.716 25.861 5.636 2.056-5.636-2.056Zm-.183.757 5.653 2.011c.149-.418.25-.85.304-1.29l-5.957-.721Zm2.79 66.029 3.485-4.884-3.485 4.884Zm112.353.14 3.751 4.683.007-.005-3.758-4.678Zm7.704-67.135a9.295 9.295 0 0 0-.493-1.899l-11.238 4.207a2.663 2.663 0 0 1-.136-.526l11.867-1.782Zm-.493-1.899c-4.26-11.382-11.244-22.257-20.879-28.646l-6.632 10c6.793 4.505 12.53 12.854 16.273 22.853l11.238-4.207Zm-20.879-28.646c-1.47-.974-1.913-2.108-1.913-2.756h-12c0 5.722 3.442 10.211 7.281 12.757l6.632-10.001Zm-1.913-2.756v-28.46h-12v28.46h12Zm0-28.46c0-5.246-4.254-9.5-9.5-9.5v12a2.5 2.5 0 0 1-2.5-2.5h12Zm-9.5-9.5h-77v12h77v-12Zm-77 0a9.5 9.5 0 0 0-8.782 5.878l11.096 4.57a2.5 2.5 0 0 1-2.314 1.552v-12Zm-8.782 5.878a9.518 9.518 0 0 0 2.047 10.328l8.515-8.456c.704.71.917 1.77.534 2.697L78.72 51.295Zm2.063 10.344 10.643 10.638 8.483-8.488-10.643-10.638-8.483 8.488Zm10.643 10.638a2 2 0 0 1 .587 1.408l12-.037a14.003 14.003 0 0 0-4.104-9.859l-8.483 8.488Zm.587 1.408.029 9.519 12-.037-.029-9.519-12 .037Zm.029 9.519c.002.656-.451 1.81-1.957 2.781l6.508 10.082c3.932-2.537 7.467-7.085 7.449-12.9l-12 .037Zm-1.957 2.781c-9.849 6.358-16.878 17.277-21.099 28.845l11.273 4.113c3.689-10.11 9.43-18.42 16.334-22.876l-6.508-10.082ZM68.985 114.83a9.405 9.405 0 0 0-.502 2.092l11.913 1.443a2.596 2.596 0 0 1-.138.578l-11.273-4.113Zm-.199.802c-3.1 8.716-4.786 18.174-4.786 26.959h12c0-7.335 1.423-15.435 4.092-22.936l-11.306-4.023ZM64 142.591c0 11.776-.013 21.248.959 28.386.974 7.157 3.12 13.54 8.786 17.581l6.968-9.769c-1.563-1.116-3.031-3.316-3.864-9.431-.836-6.135-.849-14.626-.849-26.767H64Zm9.745 45.967c5.218 3.722 13.087 5.741 22.998 6.957 10.138 1.244 23.401 1.743 40.195 1.743v-12c-16.66 0-29.337-.501-38.734-1.654-9.622-1.18-14.88-2.953-17.49-4.815l-6.97 9.769Zm63.193 8.7c14.859 0 26.646-.499 35.674-1.736 8.802-1.206 15.977-3.225 20.721-7.026l-7.502-9.365c-2.053 1.644-6.418 3.347-14.848 4.502-8.205 1.124-19.342 1.625-34.045 1.625v12Zm56.402-8.767c5.13-4.122 6.97-10.49 7.815-17.501.856-7.105.845-16.556.845-28.399h-12c0 12.167-.011 20.749-.759 26.964-.76 6.308-2.129 8.546-3.417 9.581l7.516 9.355Zm8.66-45.9c0-8.837-1.804-18.351-5.015-27.091l-11.264 4.138c2.771 7.542 4.279 15.657 4.279 22.953h12Z" mask="url(#d)"/><path fill="#918F8A" fill-rule="evenodd" d="M213.5 136.418a3.501 3.501 0 0 1-3.5-3.5c0-25.963-19.103-45.5-31.5-45.5h-14a3.501 3.501 0 0 1-3.5-3.5c0-1.931 1.568-3.5 3.5-3.5h14c15.505 0 38.5 22.043 38.5 52.5 0 1.932-1.568 3.5-3.5 3.5Z" clip-rule="evenodd"/><path fill="#918F8A" fill-rule="evenodd" d="M213.5 131.418a3.501 3.501 0 0 1-3.5-3.5c0-25.963-19.103-45.5-31.5-45.5h-14a3.501 3.501 0 0 1-3.5-3.5c0-1.931 1.568-3.5 3.5-3.5h14c15.505 0 38.5 22.043 38.5 52.5 0 1.932-1.568 3.5-3.5 3.5Z" clip-rule="evenodd"/><rect width="80" height="17" x="93" y="72.259" fill="#D4D4D2" rx="3"/><path fill="#575551" d="M160.031 115.138c1.202-1.794 3.257-2.996 5.452-2.926a6.446 6.446 0 0 1 5.312 3.17c.453.784.209 1.951-.627 2.386-.836.436-1.899.209-2.386-.627-.053-.087-.105-.174-.157-.244 0-.017-.07-.087-.087-.122 0 0-.018-.034-.035-.034-.052-.053-.105-.122-.157-.175a1.514 1.514 0 0 0-.174-.156s-.157-.122-.174-.14a1.014 1.014 0 0 0-.227-.139 4.617 4.617 0 0 0-.418-.226c-.069-.018-.156-.053-.226-.07-.157-.052-.314-.07-.47-.122h-.68c-.052 0-.104.017-.174.035-.174.035-.331.087-.505.139h-.035c-.034 0-.104.052-.139.052-.157.087-.313.175-.453.262-.017 0-.087.069-.139.104a3.715 3.715 0 0 0-.366.366.425.425 0 0 1-.087.104c-.017.035-.052.07-.07.105-.505.749-1.567 1.149-2.386.627-.749-.488-1.167-1.568-.627-2.386l.035.017Zm-34.748 1.028c.505-2.526 2.822-4.546 5.33-4.947 2.839-.452 5.695.767 7.541 2.909.593.697.732 1.794 0 2.456-.661.592-1.828.731-2.455 0a16.737 16.737 0 0 0-.54-.575c-.07-.07-.157-.139-.227-.209 0 0-.122-.104-.191-.157a1.437 1.437 0 0 0-.209-.139c-.105-.07-.227-.139-.331-.209-.209-.122-.418-.226-.627-.331-.052-.017-.035-.017-.07-.035h-.017c-.122-.035-.244-.087-.366-.122-.244-.069-.505-.122-.749-.174-.122 0-.261-.017-.383-.017h-.383c-.035 0-.157 0-.227.017h-.087c-.122.018-.226.052-.348.087-.105.035-.227.07-.331.105-.035 0-.087.035-.139.069.017 0 .034-.017.104-.052-.191.105-.383.192-.557.296a1.267 1.267 0 0 0-.244.174c-.017 0-.052.035-.07.053-.156.139-.296.296-.453.435-.017.035-.017.017-.034.035-.07.087-.122.174-.175.279-.052.104-.121.191-.174.296a.285.285 0 0 1-.035.087c-.052.191-.121.4-.156.592-.175.888-1.289 1.498-2.143 1.219-.94-.313-1.41-1.184-1.219-2.142h-.035Zm5.171-1.271s-.048.016 0 0Zm16.616 4.371c.348-.331.749-.47 1.237-.505l1.828-.157a6.708 6.708 0 0 0-.243-.783 6.95 6.95 0 0 0-.767-1.307c.053.07.105.14.157.192-.296-.366-.488-.714-.488-1.202 0-.435.192-.94.505-1.236.331-.297.767-.523 1.237-.506.436.018.941.157 1.237.506a9.337 9.337 0 0 1 1.498 2.577c.139.366.243.749.33 1.132.088.471.192.976.157 1.446-.052.714-.261 1.393-.818 1.898-.558.505-1.22.645-1.951.714l-2.665.209c-.418.035-.94-.226-1.236-.505-.297-.296-.523-.801-.506-1.236.018-.453.175-.923.506-1.237h-.018Z"/><path fill="#575551" d="M121.835 119.754c5.242 6.583 13.289 10.258 21.632 10.833 9.422.644 18.636-2.386 26.891-6.74 1.986-1.045 3.745 1.968 1.759 3.013-8.952 4.72-19.071 8.029-29.312 7.158-8.97-.766-17.748-4.668-23.408-11.791-1.376-1.742 1.062-4.215 2.455-2.456l-.017-.017Z"/><path fill="#FAABAB" d="M107.24 125.838v9.36c0 6.856-2.859 11.301-6.544 13.995-3.629 2.651-7.98 3.555-11.006 3.555-1.637 0-3.658-.533-5.295-1.83-1.68-1.331-2.895-3.422-2.895-6.36 0-1.937-.428-3.51 1.51-3.51a3.511 3.511 0 0 1 3.51 3.51c0 .647 2.201.849 2.315.934.173.132.473.223.894.236.56-.006 3.211-.119 5.7-1.477 1.243-.678 2.427-1.657 3.305-3.078.875-1.418 1.486-3.341 1.486-5.975v-9.36c0-1.313-.251-2.27-.659-2.982-.402-.703-1.002-1.25-1.842-1.676-1.75-.886-4.42-1.192-8.03-1.192-.65 0-.855.201-.938.31-.13.167.249-7.539 1.249-7.039 4 0 10-.288 13 2.5 3.767 3.5 4.493 6.886 4.24 10.079Z"/><path fill="#F9C4C2" fill-rule="evenodd" d="M32.036 174.008c-5.263-.457-9.036-4.912-9.036-10.195v-61.374c0-5.153 4.198-7.02 7.02-7.02H81.5c5.153 0 7.02 4.198 7.02 7.02v61.374c0 5.283-3.773 9.738-9.036 10.195-5.4.469-13.266.911-23.724.911s-18.324-.442-23.724-.911Z" clip-rule="evenodd"/><path fill="#575551" d="M70.56 124.326s.02.038.039.058c-.192-.268-.325-.555-.46-.842a4.714 4.714 0 0 1-.21-.861c0-.287 0-.573.02-.879.076-.345.153-.689.305-1.014l-.057.134c.21-.44.306-.88.191-1.377-.114-.44-.44-.937-.841-1.167-.842-.478-2.142-.325-2.64.631-.65 1.282-.937 2.64-.784 4.074a6.967 6.967 0 0 0 1.626 3.787c.65.765 2.027.784 2.697.057.727-.765.727-1.798.115-2.62v.019Zm-33.065 0s.019.039.038.058c-.191-.268-.325-.555-.46-.842a4.714 4.714 0 0 1-.21-.861c0-.286 0-.573.02-.879.076-.345.153-.689.306-1.014l-.058.134c.21-.44.306-.88.191-1.377-.114-.44-.44-.937-.841-1.167-.88-.459-2.161-.306-2.659.631-.65 1.282-.937 2.659-.784 4.074a6.967 6.967 0 0 0 1.626 3.787c.65.765 2.027.784 2.697.057.727-.765.727-1.797.114-2.62l.02.019Zm19.21.497c-.975-.229-2.123.287-2.353 1.339a3.461 3.461 0 0 1-.172.593c-.019.038-.038.077-.057.096-.057.095-.115.21-.172.306-.02.038-.134.172-.153.21-.038.038-.058.077-.077.077-.076.095-.172.172-.248.248-.058.039-.058.058-.096.077l-.516.344c-.096.057-.21.096-.306.153h-.02a8.701 8.701 0 0 1-.688.191h-.038c-.115 0-.21 0-.325.019h-.459c-.23 0-.498-.095-.708-.153a1.691 1.691 0 0 1-.287-.095c-.096-.038-.478-.249-.115-.038-.21-.115-.42-.211-.612-.326-.114-.057-.21-.133-.325-.21-.038-.019-.038 0-.057-.038-.191-.172-.383-.325-.574-.517-.096-.095-.172-.191-.268-.287 0 0-.095-.114-.153-.172-.038-.057-.115-.153-.115-.172a4.741 4.741 0 0 1-.248-.401c-.517-.861-1.74-1.244-2.62-.689-.861.555-1.224 1.702-.689 2.62 1.492 2.525 4.323 4.457 7.344 4.284 2.927-.172 5.776-2.18 6.427-5.125.21-.976-.287-2.123-1.34-2.353l.02.019Z"/><path fill="#F1F0F0" fill-rule="evenodd" d="M47.555 87.346c.631.694-.262 2.222-1.126 1.858C42.573 87.58 39 85.364 39 81.418c0-6 7.435-7 14.87-9 7.434-2 13.217-2 14.043-8 .826-6-9.087-6-17.348-9-8.26-3-9.087-8-4.956-11 2.797-2.031 8.263-3.219 11.233-5.588 1.228-.98 2.658-1.571 2.367 1.06-.273 1.746-2.709 3.368-3.861 4.528-4.313 4.34-3.957 5 3.478 7 7.435 2 18.174 2 18.174 12s-11.565 12-22.304 14c-8.736 1.627-12.006 4.578-7.14 9.928Z" clip-rule="evenodd"/></g><defs><clipPath id="a"><path fill="#fff" d="M0 0h240v240H0z"/></clipPath></defs></svg>